<svg xmlns="http://www.w3.org/2000/svg" xmlns:xlink="http://www.w3.org/1999/xlink" contentStyleType="text/css" height="204px" preserveAspectRatio="none" style="width:384px;height:204px;background:#FFFFFF;" version="1.1" viewBox="0 0 384 204" width="384px" zoomAndPan="magnify"><!-- GENERATED from cat-harness/uml/overview/folio-assistant-sci/folio-assistant-sci-qa-checkers.puml (landscape view, landscapeOf) by cat-harness-tools/scripts/gen-uml-overview.ts (PlantUML 1.2024.7) --><!-- puml-sha256: 19d87a561ce7ec3400172894828cd50a57ebbed5b621efaac3e9e8187f12562e --><defs/><g><!--cluster pkg_folio_assistant_sci_folio_assistant_sci_qa_checkers--><g id="cluster_pkg_folio_assistant_sci_folio_assistant_sci_qa_checkers"><rect fill="#FFFFFF" height="186" rx="2.5" ry="2.5" style="stroke:#000000;stroke-width:1.0;" width="366" x="12" y="12"/><text fill="#000000" font-family="Verdana" font-size="14" font-style="italic" lengthAdjust="spacing" textLength="100.7002" x="144.6499" y="27.5625">&#171;qa-checkers&#187;</text><text fill="#000000" font-family="Verdana" font-size="14" font-weight="bold" lengthAdjust="spacing" textLength="350.7041" x="19.6479" y="44.502">folio-assistant-sci/folio-assistant-sci-qa-checkers</text></g><!--class folio_assistant_sci_folio_assistant_sci_qa_checkers_folio_qa_checker_v1_folio_qa_checker_v1--><g id="elem_folio_assistant_sci_folio_assistant_sci_qa_checkers_folio_qa_checker_v1_folio_qa_checker_v1"><rect codeLine="14" fill="#F4F4F1" height="117.2168" id="folio_assistant_sci_folio_assistant_sci_qa_checkers_folio_qa_checker_v1_folio_qa_checker_v1" rx="2.5" ry="2.5" style="stroke:#000000;stroke-width:1.0;" width="243.3076" x="73" y="64.5"/><ellipse cx="101.2257" cy="85.2295" fill="#FFFFFF" rx="9" ry="9" style="stroke:#000000;stroke-width:1.0;"/><path d="M104.1945,90.8701 Q103.6164,91.167 102.9757,91.3076 Q102.3351,91.4639 101.632,91.4639 Q99.132,91.4639 97.8039,89.8232 Q96.4914,88.167 96.4914,85.042 Q96.4914,81.917 97.8039,80.2607 Q99.132,78.6045 101.632,78.6045 Q102.3351,78.6045 102.9757,78.7607 Q103.632,78.917 104.1945,79.2139 L104.1945,81.9326 Q103.5695,81.3545 102.9757,81.0889 Q102.382,80.8076 101.757,80.8076 Q100.4132,80.8076 99.7257,81.8857 Q99.0382,82.9482 99.0382,85.042 Q99.0382,87.1357 99.7257,88.2139 Q100.4132,89.2764 101.757,89.2764 Q102.382,89.2764 102.9757,89.0107 Q103.5695,88.7295 104.1945,88.1514 L104.1945,90.8701 Z " fill="#000000"/><text fill="#000000" font-family="Verdana" font-size="12" font-style="italic" lengthAdjust="spacing" textLength="185.4727" x="114.6092" y="81.125">&#171;json: QaCheckerNodeSchema&#187;</text><text fill="#000000" font-family="Verdana" font-size="14" lengthAdjust="spacing" textLength="130.2246" x="142.2333" y="97.582">folio-qa-checker/v1</text><line style="stroke:#000000;stroke-width:1.0;" x1="74" x2="315.3076" y1="105.959" y2="105.959"/><text fill="#000000" font-family="Verdana" font-size="14" lengthAdjust="spacing" textLength="231.3076" x="79" y="123.5215">$schema [1] : 'folio-qa-checker/v1'</text><text fill="#000000" font-family="Verdana" font-size="14" lengthAdjust="spacing" textLength="123.9697" x="79" y="140.4609">criterion [1] : string</text><text fill="#000000" font-family="Verdana" font-size="14" lengthAdjust="spacing" textLength="109.3613" x="79" y="157.4004">check [1] : string</text><text fill="#000000" font-family="Verdana" font-size="14" lengthAdjust="spacing" textLength="143.3223" x="79" y="174.3398">rationale [0..1] : string</text></g><!--SRC=[dPBHIyCm4CRVyrUSK_2fsmgYCCP0VF95a3qEAMTwRS-cIPR4IPNzxwRTvYhsIVAKx_lbxWjtYee0mO3ZiWgGioCPs6ZXQzOM7JQWM5DeBO4rgkqk0q-Rd3nPk9iFH8UwxiJqTYukGaLDVAgGXpMbGk_lGt3y-XxeKHgzva-2OHLVOMu-M9TGeFB3fXPbZIMjGwi8khoeIqMYufo06XjQQ2XK9lT2756O54QnIM9JzX4FYPSy6z6IBIQo8bcJynD03xOkivxBVhWiSgFQ5hFJMrWk1vLMA_WISFZqAShPdktIljK_sXpzivBjqZ4jnddpHY_W6HyEubCSt3e23SPmbyLDF6aV4k3AzpfiqXTOmFL8tEkUauu3kRWhHzB7QUhoO7NeNzbXjreOfxQPJwU_tRtOYsy0]--></g></svg>