<svg xmlns="http://www.w3.org/2000/svg" xmlns:xlink="http://www.w3.org/1999/xlink" contentStyleType="text/css" height="843px" preserveAspectRatio="none" style="width:1505px;height:843px;background:#FFFFFF;" version="1.1" viewBox="0 0 1505 843" width="1505px" zoomAndPan="magnify"><!-- GENERATED from cat-harness/uml/overview/cat-harness/library.puml by cat-harness-tools/scripts/gen-uml-overview.ts (PlantUML 1.2024.7) --><!-- puml-sha256: 421ca35d4b6f3b4f8e00fa0a4839f9b89ba22a37d2ae8e779d112e79ce8da961 --><defs/><g><rect fill="#FFFFFF" height="820.4219" rx="2.5" ry="2.5" style="stroke:#000000;stroke-width:1.0;" width="1482.6875" x="17" y="17"/><text fill="#000000" font-family="Verdana" font-size="14" font-style="italic" lengthAdjust="spacing" textLength="58.7002" x="728.9937" y="32.5625">&#171;library&#187;</text><text fill="#000000" font-family="Verdana" font-size="14" font-weight="bold" lengthAdjust="spacing" textLength="133.1299" x="691.7788" y="49.502">cat-harness/library</text><!--class cat_harness_library_folio_document_images_v1_folio_document_images_v1--><g id="elem_cat_harness_library_folio_document_images_v1_folio_document_images_v1"><rect codeLine="11" fill="#F4F4F1" height="117.2168" id="cat_harness_library_folio_document_images_v1_folio_document_images_v1" rx="2.5" ry="2.5" style="stroke:#000000;stroke-width:1.0;" width="287.4951" x="294.9544" y="132.7578"/><ellipse cx="347.7459" cy="153.4873" fill="#FFFFFF" rx="9" ry="9" style="stroke:#000000;stroke-width:1.0;"/><path d="M350.7147,159.1279 Q350.1366,159.4248 349.4959,159.5654 Q348.8553,159.7217 348.1522,159.7217 Q345.6522,159.7217 344.3241,158.0811 Q343.0116,156.4248 343.0116,153.2998 Q343.0116,150.1748 344.3241,148.5186 Q345.6522,146.8623 348.1522,146.8623 Q348.8553,146.8623 349.4959,147.0186 Q350.1522,147.1748 350.7147,147.4717 L350.7147,150.1904 Q350.0897,149.6123 349.4959,149.3467 Q348.9022,149.0654 348.2772,149.0654 Q346.9334,149.0654 346.2459,150.1436 Q345.5584,151.2061 345.5584,153.2998 Q345.5584,155.3936 346.2459,156.4717 Q346.9334,157.5342 348.2772,157.5342 Q348.9022,157.5342 349.4959,157.2686 Q350.0897,156.9873 350.7147,156.4092 L350.7147,159.1279 Z " fill="#000000"/><text fill="#000000" font-family="Verdana" font-size="12" font-style="italic" lengthAdjust="spacing" textLength="176.0859" x="364.409" y="149.3828">&#171;json: ImagesSidecarSchema&#187;</text><text fill="#000000" font-family="Verdana" font-size="14" lengthAdjust="spacing" textLength="174.4121" x="365.2459" y="165.8398">folio-document-images/v1</text><line style="stroke:#000000;stroke-width:1.0;" x1="295.9544" x2="581.4495" y1="174.2168" y2="174.2168"/><text fill="#000000" font-family="Verdana" font-size="14" lengthAdjust="spacing" textLength="275.4951" x="300.9544" y="191.7793">$schema [1] : 'folio-document-images/v1'</text><text fill="#000000" font-family="Verdana" font-size="14" lengthAdjust="spacing" textLength="112.5537" x="300.9544" y="208.7188">doc_id [1] : string</text><text fill="#000000" font-family="Verdana" font-size="14" lengthAdjust="spacing" textLength="166.5781" x="300.9544" y="225.6582">images [1] : object[] | null</text><text fill="#000000" font-family="Verdana" font-size="14" lengthAdjust="spacing" textLength="229.8311" x="300.9544" y="242.5977">undetermined_reason [0..1] : string</text></g><!--class cat_harness_library_folio_vector_labels_v1_folio_vector_labels_v1--><g id="elem_cat_harness_library_folio_vector_labels_v1_folio_vector_labels_v1"><rect codeLine="17" fill="#F4F4F1" height="117.2168" id="cat_harness_library_folio_vector_labels_v1_folio_vector_labels_v1" rx="2.5" ry="2.5" style="stroke:#000000;stroke-width:1.0;" width="254.3613" x="263.6055" y="327.0386"/><ellipse cx="285.8814" cy="347.7681" fill="#FFFFFF" rx="9" ry="9" style="stroke:#000000;stroke-width:1.0;"/><path d="M288.8502,353.4087 Q288.2721,353.7056 287.6314,353.8462 Q286.9908,354.0024 286.2877,354.0024 Q283.7877,354.0024 282.4596,352.3618 Q281.1471,350.7056 281.1471,347.5806 Q281.1471,344.4556 282.4596,342.7993 Q283.7877,341.1431 286.2877,341.1431 Q286.9908,341.1431 287.6314,341.2993 Q288.2877,341.4556 288.8502,341.7524 L288.8502,344.4712 Q288.2252,343.8931 287.6314,343.6274 Q287.0377,343.3462 286.4127,343.3462 Q285.0689,343.3462 284.3814,344.4243 Q283.6939,345.4868 283.6939,347.5806 Q283.6939,349.6743 284.3814,350.7524 Q285.0689,351.8149 286.4127,351.8149 Q287.0377,351.8149 287.6314,351.5493 Q288.2252,351.2681 288.8502,350.6899 L288.8502,353.4087 Z " fill="#000000"/><text fill="#000000" font-family="Verdana" font-size="12" font-style="italic" lengthAdjust="spacing" textLength="209.748" x="297.9428" y="343.6636">&#171;json: VectorLabelsSidecarSchema&#187;</text><text fill="#000000" font-family="Verdana" font-size="14" lengthAdjust="spacing" textLength="141.2783" x="332.1776" y="360.1206">folio-vector-labels/v1</text><line style="stroke:#000000;stroke-width:1.0;" x1="264.6055" x2="516.9668" y1="368.4976" y2="368.4976"/><text fill="#000000" font-family="Verdana" font-size="14" lengthAdjust="spacing" textLength="242.3613" x="269.6055" y="386.0601">$schema [1] : 'folio-vector-labels/v1'</text><text fill="#000000" font-family="Verdana" font-size="14" lengthAdjust="spacing" textLength="112.5537" x="269.6055" y="402.9995">doc_id [1] : string</text><text fill="#000000" font-family="Verdana" font-size="14" lengthAdjust="spacing" textLength="159.4961" x="269.6055" y="419.939">pages [1] : object[] | null</text><text fill="#000000" font-family="Verdana" font-size="14" lengthAdjust="spacing" textLength="229.8311" x="269.6055" y="436.8784">undetermined_reason [0..1] : string</text></g><!--class cat_harness_library_folio_vector_figures_v1_folio_vector_figures_v1--><g id="elem_cat_harness_library_folio_vector_figures_v1_folio_vector_figures_v1"><rect codeLine="23" fill="#F4F4F1" height="117.2168" id="cat_harness_library_folio_vector_figures_v1_folio_vector_figures_v1" rx="2.5" ry="2.5" style="stroke:#000000;stroke-width:1.0;" width="261.8535" x="259.8594" y="539.0488"/><ellipse cx="283.4502" cy="559.7783" fill="#FFFFFF" rx="9" ry="9" style="stroke:#000000;stroke-width:1.0;"/><path d="M286.4189,565.4189 Q285.8408,565.7158 285.2002,565.8564 Q284.5596,566.0127 283.8564,566.0127 Q281.3564,566.0127 280.0283,564.3721 Q278.7158,562.7158 278.7158,559.5908 Q278.7158,556.4658 280.0283,554.8096 Q281.3564,553.1533 283.8564,553.1533 Q284.5596,553.1533 285.2002,553.3096 Q285.8564,553.4658 286.4189,553.7627 L286.4189,556.4814 Q285.7939,555.9033 285.2002,555.6377 Q284.6064,555.3564 283.9814,555.3564 Q282.6377,555.3564 281.9502,556.4346 Q281.2627,557.4971 281.2627,559.5908 Q281.2627,561.6846 281.9502,562.7627 Q282.6377,563.8252 283.9814,563.8252 Q284.6064,563.8252 285.2002,563.5596 Q285.7939,563.2783 286.4189,562.7002 L286.4189,565.4189 Z " fill="#000000"/><text fill="#000000" font-family="Verdana" font-size="12" font-style="italic" lengthAdjust="spacing" textLength="214.3184" x="295.8037" y="555.6738">&#171;json: VectorFiguresSidecarSchema&#187;</text><text fill="#000000" font-family="Verdana" font-size="14" lengthAdjust="spacing" textLength="148.7705" x="328.5776" y="572.1309">folio-vector-figures/v1</text><line style="stroke:#000000;stroke-width:1.0;" x1="260.8594" x2="520.7129" y1="580.5078" y2="580.5078"/><text fill="#000000" font-family="Verdana" font-size="14" lengthAdjust="spacing" textLength="249.8535" x="265.8594" y="598.0703">$schema [1] : 'folio-vector-figures/v1'</text><text fill="#000000" font-family="Verdana" font-size="14" lengthAdjust="spacing" textLength="112.5537" x="265.8594" y="615.0098">doc_id [1] : string</text><text fill="#000000" font-family="Verdana" font-size="14" lengthAdjust="spacing" textLength="165.1836" x="265.8594" y="631.9492">figures [1] : object[] | null</text><text fill="#000000" font-family="Verdana" font-size="14" lengthAdjust="spacing" textLength="229.8311" x="265.8594" y="648.8887">undetermined_reason [0..1] : string</text></g><!--class cat_harness_library_folio_figure_descriptions_v1_folio_figure_descriptions_v1--><g id="elem_cat_harness_library_folio_figure_descriptions_v1_folio_figure_descriptions_v1"><rect codeLine="29" fill="#F4F4F1" height="100.2773" id="cat_harness_library_folio_figure_descriptions_v1_folio_figure_descriptions_v1" rx="2.5" ry="2.5" style="stroke:#000000;stroke-width:1.0;" width="293.5723" x="541.4258" y="335.5083"/><ellipse cx="577.8609" cy="356.2378" fill="#FFFFFF" rx="9" ry="9" style="stroke:#000000;stroke-width:1.0;"/><path d="M580.8297,361.8784 Q580.2516,362.1753 579.6109,362.3159 Q578.9703,362.4722 578.2672,362.4722 Q575.7672,362.4722 574.4391,360.8315 Q573.1266,359.1753 573.1266,356.0503 Q573.1266,352.9253 574.4391,351.269 Q575.7672,349.6128 578.2672,349.6128 Q578.9703,349.6128 579.6109,349.769 Q580.2672,349.9253 580.8297,350.2222 L580.8297,352.9409 Q580.2047,352.3628 579.6109,352.0972 Q579.0172,351.8159 578.3922,351.8159 Q577.0484,351.8159 576.3609,352.894 Q575.6734,353.9565 575.6734,356.0503 Q575.6734,358.144 576.3609,359.2222 Q577.0484,360.2847 578.3922,360.2847 Q579.0172,360.2847 579.6109,360.019 Q580.2047,359.7378 580.8297,359.1597 L580.8297,361.8784 Z " fill="#000000"/><text fill="#000000" font-family="Verdana" font-size="12" font-style="italic" lengthAdjust="spacing" textLength="217.4941" x="593.0688" y="352.1333">&#171;json: FigureDescriptionsFileSchema&#187;</text><text fill="#000000" font-family="Verdana" font-size="14" lengthAdjust="spacing" textLength="180.4893" x="611.5712" y="368.5903">folio-figure-descriptions/v1</text><line style="stroke:#000000;stroke-width:1.0;" x1="542.4258" x2="833.998" y1="376.9673" y2="376.9673"/><text fill="#000000" font-family="Verdana" font-size="14" lengthAdjust="spacing" textLength="281.5723" x="547.4258" y="394.5298">$schema [1] : 'folio-figure-descriptions/v1'</text><text fill="#000000" font-family="Verdana" font-size="14" lengthAdjust="spacing" textLength="154.458" x="547.4258" y="411.4692">_comment [0..1] : string</text><text fill="#000000" font-family="Verdana" font-size="14" lengthAdjust="spacing" textLength="211.668" x="547.4258" y="428.4087">descriptions [1] : map&lt;object[]&gt;</text></g><!--class cat_harness_library_folio_block_summaries_v1_Superseded--><g id="elem_cat_harness_library_folio_block_summaries_v1_Superseded"><rect codeLine="34" fill="#F4F4F1" height="201.9141" id="cat_harness_library_folio_block_summaries_v1_Superseded" rx="2.5" ry="2.5" style="stroke:#000000;stroke-width:1.0;" width="354.2686" x="854.7109" y="539.0488"/><ellipse cx="915.269" cy="559.7783" fill="#FFFFFF" rx="9" ry="9" style="stroke:#000000;stroke-width:1.0;"/><path d="M918.2378,565.4189 Q917.6597,565.7158 917.019,565.8564 Q916.3784,566.0127 915.6753,566.0127 Q913.1753,566.0127 911.8472,564.3721 Q910.5347,562.7158 910.5347,559.5908 Q910.5347,556.4658 911.8472,554.8096 Q913.1753,553.1533 915.6753,553.1533 Q916.3784,553.1533 917.019,553.3096 Q917.6753,553.4658 918.2378,553.7627 L918.2378,556.4814 Q917.6128,555.9033 917.019,555.6377 Q916.4253,555.3564 915.8003,555.3564 Q914.4565,555.3564 913.769,556.4346 Q913.0815,557.4971 913.0815,559.5908 Q913.0815,561.6846 913.769,562.7627 Q914.4565,563.8252 915.8003,563.8252 Q916.4253,563.8252 917.019,563.5596 Q917.6128,563.2783 918.2378,562.7002 L918.2378,565.4189 Z " fill="#000000"/><text fill="#000000" font-family="Verdana" font-size="12" font-style="italic" lengthAdjust="spacing" textLength="229.6523" x="930.769" y="555.6738">&#171;json: BlockSummariesSidecarSchema&#187;</text><text fill="#000000" font-family="Verdana" font-size="14" lengthAdjust="spacing" textLength="80.124" x="1005.5332" y="572.1309">Superseded</text><line style="stroke:#000000;stroke-width:1.0;" x1="855.7109" x2="1207.9795" y1="580.5078" y2="580.5078"/><text fill="#000000" font-family="Verdana" font-size="14" lengthAdjust="spacing" textLength="130.0674" x="860.7109" y="598.0703">text [1] : string | null</text><text fill="#000000" font-family="Verdana" font-size="14" lengthAdjust="spacing" textLength="342.2686" x="860.7109" y="615.0098">state [1] : not-authored | draft | confirmed | rejected</text><text fill="#000000" font-family="Verdana" font-size="14" lengthAdjust="spacing" textLength="160.7744" x="860.7109" y="631.9492">drafted_by [0..1] : object</text><text fill="#000000" font-family="Verdana" font-size="14" lengthAdjust="spacing" textLength="153.166" x="860.7109" y="648.8887">drafted_at [0..1] : string</text><text fill="#000000" font-family="Verdana" font-size="14" lengthAdjust="spacing" textLength="180.0791" x="860.7109" y="665.8281">confirmed_by [0..1] : object</text><text fill="#000000" font-family="Verdana" font-size="14" lengthAdjust="spacing" textLength="172.4707" x="860.7109" y="682.7676">confirmed_at [0..1] : string</text><text fill="#000000" font-family="Verdana" font-size="14" lengthAdjust="spacing" textLength="166.8721" x="860.7109" y="699.707">rejected_by [0..1] : object</text><text fill="#000000" font-family="Verdana" font-size="14" lengthAdjust="spacing" textLength="159.2637" x="860.7109" y="716.6465">rejected_at [0..1] : string</text><text fill="#000000" font-family="Verdana" font-size="14" lengthAdjust="spacing" textLength="195.4941" x="860.7109" y="733.5859">rejection_reason [0..1] : string</text></g><!--class cat_harness_library_folio_block_summaries_v1_Summary--><g id="elem_cat_harness_library_folio_block_summaries_v1_Summary"><rect codeLine="45" fill="#F4F4F1" height="134.1563" id="cat_harness_library_folio_block_summaries_v1_Summary" rx="2.5" ry="2.5" style="stroke:#000000;stroke-width:1.0;" width="253.6523" x="905.019" y="327.4336"/><ellipse cx="918.019" cy="348.1631" fill="#FFFFFF" rx="9" ry="9" style="stroke:#000000;stroke-width:1.0;"/><path d="M920.9878,353.8037 Q920.4097,354.1006 919.769,354.2412 Q919.1284,354.3975 918.4253,354.3975 Q915.9253,354.3975 914.5972,352.7568 Q913.2847,351.1006 913.2847,347.9756 Q913.2847,344.8506 914.5972,343.1943 Q915.9253,341.5381 918.4253,341.5381 Q919.1284,341.5381 919.769,341.6943 Q920.4253,341.8506 920.9878,342.1475 L920.9878,344.8662 Q920.3628,344.2881 919.769,344.0225 Q919.1753,343.7412 918.5503,343.7412 Q917.2065,343.7412 916.519,344.8193 Q915.8315,345.8818 915.8315,347.9756 Q915.8315,350.0693 916.519,351.1475 Q917.2065,352.21 918.5503,352.21 Q919.1753,352.21 919.769,351.9443 Q920.3628,351.6631 920.9878,351.085 L920.9878,353.8037 Z " fill="#000000"/><text fill="#000000" font-family="Verdana" font-size="12" font-style="italic" lengthAdjust="spacing" textLength="229.6523" x="928.019" y="344.0586">&#171;json: BlockSummariesSidecarSchema&#187;</text><text fill="#000000" font-family="Verdana" font-size="14" lengthAdjust="spacing" textLength="62.7881" x="1011.4512" y="360.5156">Summary</text><line style="stroke:#000000;stroke-width:1.0;" x1="906.019" x2="1157.6714" y1="368.8926" y2="368.8926"/><text fill="#000000" font-family="Verdana" font-size="14" lengthAdjust="spacing" textLength="105.2803" x="911.019" y="386.4551">block [1] : string</text><text fill="#000000" font-family="Verdana" font-size="14" lengthAdjust="spacing" textLength="114.7344" x="911.019" y="403.3945">source [1] : string</text><text fill="#000000" font-family="Verdana" font-size="14" lengthAdjust="spacing" textLength="152.9268" x="911.019" y="420.334">source_hash [1] : string</text><text fill="#000000" font-family="Verdana" font-size="14" lengthAdjust="spacing" textLength="131.3867" x="911.019" y="437.2734">narrative [1] : object</text><text fill="#000000" font-family="Verdana" font-size="14" lengthAdjust="spacing" textLength="218.8389" x="911.019" y="454.2129">superseded [0..*] : Superseded[]</text></g><!--class cat_harness_library_folio_block_summaries_v1_folio_block_summaries_v1--><g id="elem_cat_harness_library_folio_block_summaries_v1_folio_block_summaries_v1"><rect codeLine="52" fill="#F4F4F1" height="100.2773" id="cat_harness_library_folio_block_summaries_v1_folio_block_summaries_v1" rx="2.5" ry="2.5" style="stroke:#000000;stroke-width:1.0;" width="281.6299" x="891.0303" y="149.6973"/><ellipse cx="916.6202" cy="170.4268" fill="#FFFFFF" rx="9" ry="9" style="stroke:#000000;stroke-width:1.0;"/><path d="M919.5889,176.0674 Q919.0108,176.3643 918.3702,176.5049 Q917.7295,176.6611 917.0264,176.6611 Q914.5264,176.6611 913.1983,175.0205 Q911.8858,173.3643 911.8858,170.2393 Q911.8858,167.1143 913.1983,165.458 Q914.5264,163.8018 917.0264,163.8018 Q917.7295,163.8018 918.3702,163.958 Q919.0264,164.1143 919.5889,164.4111 L919.5889,167.1299 Q918.9639,166.5518 918.3702,166.2861 Q917.7764,166.0049 917.1514,166.0049 Q915.8077,166.0049 915.1202,167.083 Q914.4327,168.1455 914.4327,170.2393 Q914.4327,172.333 915.1202,173.4111 Q915.8077,174.4736 917.1514,174.4736 Q917.7764,174.4736 918.3702,174.208 Q918.9639,173.9268 919.5889,173.3486 L919.5889,176.0674 Z " fill="#000000"/><text fill="#000000" font-family="Verdana" font-size="12" font-style="italic" lengthAdjust="spacing" textLength="229.6523" x="929.4179" y="166.3223">&#171;json: BlockSummariesSidecarSchema&#187;</text><text fill="#000000" font-family="Verdana" font-size="14" lengthAdjust="spacing" textLength="168.5469" x="959.9707" y="182.7793">folio-block-summaries/v1</text><line style="stroke:#000000;stroke-width:1.0;" x1="892.0303" x2="1171.6602" y1="191.1563" y2="191.1563"/><text fill="#000000" font-family="Verdana" font-size="14" lengthAdjust="spacing" textLength="269.6299" x="897.0303" y="208.7188">$schema [1] : 'folio-block-summaries/v1'</text><text fill="#000000" font-family="Verdana" font-size="14" lengthAdjust="spacing" textLength="103.3936" x="897.0303" y="225.6582">entry [1] : string</text><text fill="#000000" font-family="Verdana" font-size="14" lengthAdjust="spacing" textLength="195.2412" x="897.0303" y="242.5977">summaries [0..*] : Summary[]</text></g><!--class cat_harness_library_folio_keywords_v1_Document--><g id="elem_cat_harness_library_folio_keywords_v1_Document"><rect codeLine="57" fill="#F4F4F1" height="100.2773" id="cat_harness_library_folio_keywords_v1_Document" rx="2.5" ry="2.5" style="stroke:#000000;stroke-width:1.0;" width="191.5313" x="52.0742" y="327.4336"/><ellipse cx="65.0742" cy="348.1631" fill="#FFFFFF" rx="9" ry="9" style="stroke:#000000;stroke-width:1.0;"/><path d="M68.043,353.8037 Q67.4648,354.1006 66.8242,354.2412 Q66.1836,354.3975 65.4805,354.3975 Q62.9805,354.3975 61.6523,352.7568 Q60.3398,351.1006 60.3398,347.9756 Q60.3398,344.8506 61.6523,343.1943 Q62.9805,341.5381 65.4805,341.5381 Q66.1836,341.5381 66.8242,341.6943 Q67.4805,341.8506 68.043,342.1475 L68.043,344.8662 Q67.418,344.2881 66.8242,344.0225 Q66.2305,343.7412 65.6055,343.7412 Q64.2617,343.7412 63.5742,344.8193 Q62.8867,345.8818 62.8867,347.9756 Q62.8867,350.0693 63.5742,351.1475 Q64.2617,352.21 65.6055,352.21 Q66.2305,352.21 66.8242,351.9443 Q67.418,351.6631 68.043,351.085 L68.043,353.8037 Z " fill="#000000"/><text fill="#000000" font-family="Verdana" font-size="12" font-style="italic" lengthAdjust="spacing" textLength="167.5313" x="75.0742" y="344.0586">&#171;json: KeywordsFileSchema&#187;</text><text fill="#000000" font-family="Verdana" font-size="14" lengthAdjust="spacing" textLength="68.0518" x="124.814" y="360.5156">Document</text><line style="stroke:#000000;stroke-width:1.0;" x1="53.0742" x2="242.6055" y1="368.8926" y2="368.8926"/><text fill="#000000" font-family="Verdana" font-size="14" lengthAdjust="spacing" textLength="99.5176" x="58.0742" y="386.4551">term [1] : string</text><text fill="#000000" font-family="Verdana" font-size="14" lengthAdjust="spacing" textLength="119.7861" x="58.0742" y="403.3945">score [1] : number</text><text fill="#000000" font-family="Verdana" font-size="14" lengthAdjust="spacing" textLength="173.8926" x="58.0742" y="420.334">evidence [0..*] : heading[]</text></g><!--class cat_harness_library_folio_keywords_v1_folio_keywords_v1--><g id="elem_cat_harness_library_folio_keywords_v1_folio_keywords_v1"><rect codeLine="62" fill="#F4F4F1" height="134.1563" id="cat_harness_library_folio_keywords_v1_folio_keywords_v1" rx="2.5" ry="2.5" style="stroke:#000000;stroke-width:1.0;" width="231.6797" x="32" y="115.8184"/><ellipse cx="63.0668" cy="136.5479" fill="#FFFFFF" rx="9" ry="9" style="stroke:#000000;stroke-width:1.0;"/><path d="M66.0355,142.1885 Q65.4574,142.4854 64.8168,142.626 Q64.1762,142.7822 63.473,142.7822 Q60.973,142.7822 59.6449,141.1416 Q58.3324,139.4854 58.3324,136.3604 Q58.3324,133.2354 59.6449,131.5791 Q60.973,129.9229 63.473,129.9229 Q64.1762,129.9229 64.8168,130.0791 Q65.473,130.2354 66.0355,130.5322 L66.0355,133.251 Q65.4105,132.6729 64.8168,132.4072 Q64.223,132.126 63.598,132.126 Q62.2543,132.126 61.5668,133.2041 Q60.8793,134.2666 60.8793,136.3604 Q60.8793,138.4541 61.5668,139.5322 Q62.2543,140.5947 63.598,140.5947 Q64.223,140.5947 64.8168,140.3291 Q65.4105,140.0479 66.0355,139.4697 L66.0355,142.1885 Z " fill="#000000"/><text fill="#000000" font-family="Verdana" font-size="12" font-style="italic" lengthAdjust="spacing" textLength="167.5313" x="77.0816" y="132.4434">&#171;json: KeywordsFileSchema&#187;</text><text fill="#000000" font-family="Verdana" font-size="14" lengthAdjust="spacing" textLength="118.5967" x="101.5489" y="148.9004">folio-keywords/v1</text><line style="stroke:#000000;stroke-width:1.0;" x1="33" x2="262.6797" y1="157.2773" y2="157.2773"/><text fill="#000000" font-family="Verdana" font-size="14" lengthAdjust="spacing" textLength="219.6797" x="38" y="174.8398">$schema [1] : 'folio-keywords/v1'</text><text fill="#000000" font-family="Verdana" font-size="14" lengthAdjust="spacing" textLength="103.3936" x="38" y="191.7793">entry [1] : string</text><text fill="#000000" font-family="Verdana" font-size="14" lengthAdjust="spacing" textLength="118.7539" x="38" y="208.7188">corpus [1] : object</text><text fill="#000000" font-family="Verdana" font-size="14" lengthAdjust="spacing" textLength="194.7559" x="38" y="225.6582">document [0..*] : Document[]</text><text fill="#000000" font-family="Verdana" font-size="14" lengthAdjust="spacing" textLength="185.8623" x="38" y="242.5977">sections [1] : map&lt;object[]&gt;</text></g><!--class cat_harness_library_folio_slides_accessibility_v1_folio_slides_accessibility_v1--><g id="elem_cat_harness_library_folio_slides_accessibility_v1_folio_slides_accessibility_v1"><rect codeLine="69" fill="#F4F4F1" height="134.1563" id="cat_harness_library_folio_slides_accessibility_v1_folio_slides_accessibility_v1" rx="2.5" ry="2.5" style="stroke:#000000;stroke-width:1.0;" width="292.998" x="541.7129" y="564.063"/><ellipse cx="588.4023" cy="584.7925" fill="#FFFFFF" rx="9" ry="9" style="stroke:#000000;stroke-width:1.0;"/><path d="M591.3711,590.4331 Q590.793,590.73 590.1523,590.8706 Q589.5117,591.0269 588.8086,591.0269 Q586.3086,591.0269 584.9805,589.3862 Q583.668,587.73 583.668,584.605 Q583.668,581.48 584.9805,579.8237 Q586.3086,578.1675 588.8086,578.1675 Q589.5117,578.1675 590.1523,578.3237 Q590.8086,578.48 591.3711,578.7769 L591.3711,581.4956 Q590.7461,580.9175 590.1523,580.6519 Q589.5586,580.3706 588.9336,580.3706 Q587.5898,580.3706 586.9023,581.4487 Q586.2148,582.5112 586.2148,584.605 Q586.2148,586.6987 586.9023,587.7769 Q587.5898,588.8394 588.9336,588.8394 Q589.5586,588.8394 590.1523,588.5737 Q590.7461,588.2925 591.3711,587.7144 L591.3711,590.4331 Z " fill="#000000"/><text fill="#000000" font-family="Verdana" font-size="12" font-style="italic" lengthAdjust="spacing" textLength="196.1191" x="603.9023" y="580.688">&#171;json: SlidesAccessibilitySchema&#187;</text><text fill="#000000" font-family="Verdana" font-size="14" lengthAdjust="spacing" textLength="179.915" x="612.0044" y="597.145">folio-slides-accessibility/v1</text><line style="stroke:#000000;stroke-width:1.0;" x1="542.7129" x2="833.7109" y1="605.522" y2="605.522"/><text fill="#000000" font-family="Verdana" font-size="14" lengthAdjust="spacing" textLength="280.998" x="547.7129" y="623.0845">$schema [1] : 'folio-slides-accessibility/v1'</text><text fill="#000000" font-family="Verdana" font-size="14" lengthAdjust="spacing" textLength="118.3438" x="547.7129" y="640.0239">source [1] : object</text><text fill="#000000" font-family="Verdana" font-size="14" lengthAdjust="spacing" textLength="142.7412" x="547.7129" y="656.9634">format [1] : pptx | odp</text><text fill="#000000" font-family="Verdana" font-size="14" lengthAdjust="spacing" textLength="116.4707" x="547.7129" y="673.9028">slides [1] : integer</text><text fill="#000000" font-family="Verdana" font-size="14" lengthAdjust="spacing" textLength="120.3604" x="547.7129" y="690.8423">checks [1] : object</text></g><!--class cat_harness_library_folio_referenced_source_v1_Outline--><g id="elem_cat_harness_library_folio_referenced_source_v1_Outline"><rect codeLine="76" fill="#F4F4F1" height="100.2773" id="cat_harness_library_folio_referenced_source_v1_Outline" rx="2.5" ry="2.5" style="stroke:#000000;stroke-width:1.0;" width="220.7285" x="1228.3096" y="327.4336"/><ellipse cx="1241.3096" cy="348.1631" fill="#FFFFFF" rx="9" ry="9" style="stroke:#000000;stroke-width:1.0;"/><path d="M1244.2783,353.8037 Q1243.7002,354.1006 1243.0596,354.2412 Q1242.4189,354.3975 1241.7158,354.3975 Q1239.2158,354.3975 1237.8877,352.7568 Q1236.5752,351.1006 1236.5752,347.9756 Q1236.5752,344.8506 1237.8877,343.1943 Q1239.2158,341.5381 1241.7158,341.5381 Q1242.4189,341.5381 1243.0596,341.6943 Q1243.7158,341.8506 1244.2783,342.1475 L1244.2783,344.8662 Q1243.6533,344.2881 1243.0596,344.0225 Q1242.4658,343.7412 1241.8408,343.7412 Q1240.4971,343.7412 1239.8096,344.8193 Q1239.1221,345.8818 1239.1221,347.9756 Q1239.1221,350.0693 1239.8096,351.1475 Q1240.4971,352.21 1241.8408,352.21 Q1242.4658,352.21 1243.0596,351.9443 Q1243.6533,351.6631 1244.2783,351.085 L1244.2783,353.8037 Z " fill="#000000"/><text fill="#000000" font-family="Verdana" font-size="12" font-style="italic" lengthAdjust="spacing" textLength="196.7285" x="1251.3096" y="344.0586">&#171;json: ReferencedSourceSchema&#187;</text><text fill="#000000" font-family="Verdana" font-size="14" lengthAdjust="spacing" textLength="46.7783" x="1326.2847" y="360.5156">Outline</text><line style="stroke:#000000;stroke-width:1.0;" x1="1229.3096" x2="1448.0381" y1="368.8926" y2="368.8926"/><text fill="#000000" font-family="Verdana" font-size="14" lengthAdjust="spacing" textLength="109.1494" x="1234.3096" y="386.4551">level [1] : integer</text><text fill="#000000" font-family="Verdana" font-size="14" lengthAdjust="spacing" textLength="93.3447" x="1234.3096" y="403.3945">title [1] : string</text><text fill="#000000" font-family="Verdana" font-size="14" lengthAdjust="spacing" textLength="147.2188" x="1234.3096" y="420.334">page [1] : integer | null</text></g><!--class cat_harness_library_folio_referenced_source_v1_folio_referenced_source_v1--><g id="elem_cat_harness_library_folio_referenced_source_v1_folio_referenced_source_v1"><rect codeLine="81" fill="#F4F4F1" height="184.9746" id="cat_harness_library_folio_referenced_source_v1_folio_referenced_source_v1" rx="2.5" ry="2.5" style="stroke:#000000;stroke-width:1.0;" width="292.0273" x="1192.6602" y="65"/><ellipse cx="1238.5596" cy="85.7295" fill="#FFFFFF" rx="9" ry="9" style="stroke:#000000;stroke-width:1.0;"/><path d="M1241.5283,91.3701 Q1240.9502,91.667 1240.3096,91.8076 Q1239.6689,91.9639 1238.9658,91.9639 Q1236.4658,91.9639 1235.1377,90.3232 Q1233.8252,88.667 1233.8252,85.542 Q1233.8252,82.417 1235.1377,80.7607 Q1236.4658,79.1045 1238.9658,79.1045 Q1239.6689,79.1045 1240.3096,79.2607 Q1240.9658,79.417 1241.5283,79.7139 L1241.5283,82.4326 Q1240.9033,81.8545 1240.3096,81.5889 Q1239.7158,81.3076 1239.0908,81.3076 Q1237.7471,81.3076 1237.0596,82.3857 Q1236.3721,83.4482 1236.3721,85.542 Q1236.3721,87.6357 1237.0596,88.7139 Q1237.7471,89.7764 1239.0908,89.7764 Q1239.7158,89.7764 1240.3096,89.5107 Q1240.9033,89.2295 1241.5283,88.6514 L1241.5283,91.3701 Z " fill="#000000"/><text fill="#000000" font-family="Verdana" font-size="12" font-style="italic" lengthAdjust="spacing" textLength="196.7285" x="1254.0596" y="81.625">&#171;json: ReferencedSourceSchema&#187;</text><text fill="#000000" font-family="Verdana" font-size="14" lengthAdjust="spacing" textLength="178.9443" x="1262.9517" y="98.082">folio-referenced-source/v1</text><line style="stroke:#000000;stroke-width:1.0;" x1="1193.6602" x2="1483.6875" y1="106.459" y2="106.459"/><text fill="#000000" font-family="Verdana" font-size="14" lengthAdjust="spacing" textLength="280.0273" x="1198.6602" y="124.0215">$schema [1] : 'folio-referenced-source/v1'</text><text fill="#000000" font-family="Verdana" font-size="14" lengthAdjust="spacing" textLength="121.666" x="1198.6602" y="140.9609">identity [1] : object</text><text fill="#000000" font-family="Verdana" font-size="14" lengthAdjust="spacing" textLength="118.3438" x="1198.6602" y="157.9004">source [1] : object</text><text fill="#000000" font-family="Verdana" font-size="14" lengthAdjust="spacing" textLength="151.4297" x="1198.6602" y="174.8398">outline [0..*] : Outline[]</text><text fill="#000000" font-family="Verdana" font-size="14" lengthAdjust="spacing" textLength="244.7676" x="1198.6602" y="191.7793">outline_source [1] : embedded | none</text><text fill="#000000" font-family="Verdana" font-size="14" lengthAdjust="spacing" textLength="169.251" x="1198.6602" y="208.7188">materialization [1] : object</text><text fill="#000000" font-family="Verdana" font-size="14" lengthAdjust="spacing" textLength="128.96" x="1198.6602" y="225.6582">withheld [1] : object</text><text fill="#000000" font-family="Verdana" font-size="14" lengthAdjust="spacing" textLength="131.4072" x="1198.6602" y="242.5977">links [0..*] : object[]</text></g><g id="elem_n_cat_harness_library_library_folio_image_verdicts_v1"><path d="M37.5349,780.9629 L37.5349,822.4219 L1338.8889,822.4219 L1338.8889,790.9629 L1328.8889,780.9629 L37.5349,780.9629 " fill="#FFFFFF" style="stroke:#000000;stroke-width:1.0;"/><path d="M1328.8889,780.9629 L1328.8889,790.9629 L1338.8889,790.9629 L1328.8889,780.9629 " fill="#FFFFFF" style="stroke:#000000;stroke-width:1.0;"/><text fill="#000000" font-family="Verdana" font-size="13" lengthAdjust="spacing" textLength="352.0093" x="43.5349" y="798.5566">library folio-image-verdicts/v1: no node schema declared</text><text fill="#000000" font-family="Verdana" font-size="13" lengthAdjust="spacing" textLength="1280.354" x="43.5349" y="814.2861">(scripts/apply-image-verdicts.ts does not exist under the instance root /tmp/claude-0/-home-user-folio-assistant/c33a3d90-e131-5892-be9f-a8b74b021eb6/scratchpad/fa8/cat-harness: could not determine)</text></g><line style="stroke:#000000;stroke-width:1.0;" x1="1031.8452" x2="1031.8452" y1="461.5898" y2="539.0488"/><polygon fill="#000000" points="1031.8452,461.5898,1027.8452,467.5898,1031.8452,473.5898,1035.8452,467.5898,1031.8452,461.5898" style="stroke:#000000;stroke-width:1.0;"/><text fill="#000000" font-family="Verdana" font-size="13" lengthAdjust="spacing" textLength="72.9219" x="954.9233" y="496.1836">superseded</text><text fill="#000000" font-family="Verdana" font-size="13" lengthAdjust="spacing" textLength="22.2041" x="1034.8452" y="533.9131">0..*</text><line style="stroke:#000000;stroke-width:1.0;" x1="1031.8452" x2="1031.8452" y1="249.9746" y2="327.4336"/><polygon fill="#000000" points="1031.8452,249.9746,1027.8452,255.9746,1031.8452,261.9746,1035.8452,255.9746,1031.8452,249.9746" style="stroke:#000000;stroke-width:1.0;"/><text fill="#000000" font-family="Verdana" font-size="13" lengthAdjust="spacing" textLength="67.1074" x="960.7378" y="284.5684">summaries</text><text fill="#000000" font-family="Verdana" font-size="13" lengthAdjust="spacing" textLength="22.2041" x="1034.8452" y="322.2979">0..*</text><line style="stroke:#000000;stroke-width:1.0;" x1="147.8398" x2="147.8398" y1="249.9746" y2="327.4336"/><polygon fill="#000000" points="147.8398,249.9746,143.8398,255.9746,147.8398,261.9746,151.8398,255.9746,147.8398,249.9746" style="stroke:#000000;stroke-width:1.0;"/><text fill="#000000" font-family="Verdana" font-size="13" lengthAdjust="spacing" textLength="61.769" x="82.0708" y="284.5684">document</text><text fill="#000000" font-family="Verdana" font-size="13" lengthAdjust="spacing" textLength="22.2041" x="150.8398" y="322.2979">0..*</text><line style="stroke:#000000;stroke-width:1.0;" x1="1338.6738" x2="1338.6738" y1="249.9746" y2="327.4336"/><polygon fill="#000000" points="1338.6738,249.9746,1334.6738,255.9746,1338.6738,261.9746,1342.6738,255.9746,1338.6738,249.9746" style="stroke:#000000;stroke-width:1.0;"/><text fill="#000000" font-family="Verdana" font-size="13" lengthAdjust="spacing" textLength="41.2915" x="1293.3823" y="284.5684">outline</text><text fill="#000000" font-family="Verdana" font-size="13" lengthAdjust="spacing" textLength="22.2041" x="1341.6738" y="322.2979">0..*</text><!--SRC=[jLTjRzis4FwkNy5c0z8LK1mttPOOGO0EHO6Y0mRKmBvaWK29Puir9GeavSHT-zzt8gaNMvBj61aI807lHSyzzyBZgqBHPKQ9e1jP6W9Y5RmoAMH02a5v7kWLpmkgQ4OIGRL-RupYSMdWKoBpEVy6vBAZebFAv2FFbsH1XOQEfA39YYvXRZO2Y8B4q7mf84Wv0m9POJOa0vDAfeF0gvApX9emfIe7hIU2nuggpHcXcXIhPOIooCiYBoEtj_w_kploRq0SO7Asa8BBaCcap20t8S_GkPwifzRNW9_86aIrGUGCelLqL81V_gfbFYEVxCaSWqgecYT88qKiFotUuS_KOYBaPstFoVtqWSp8-HYwSwkCvn5dNbSZzVdIdZirVoxZhqZe_GFvJl9I2AjGvWmCg8pdm2855E6H-ykBYsr7FtPPMgCZgK91On17SEJK8wVUChHxtF3pjnNyQSzFO6aNtNwEYl-LeWLVbWgEvyZhzqXgptTO-kW4fzFK8jpFazTxUQQSuv21JXGl39Vv4NGvewXhr78sB6o8SvHzw4W_SW7FeMuOikClIcHMzUX0w4XknyAxp6XnMxDvjytFl2n0QM303h0H2vci8brc6LNSLKzhsyJzHwKrhvNsLuo19xDL0zr4QqCDU6akJKXBdCaAl_ITC4KN1l_Ys5zmbTap1LLqm1m3bGBMHxnf2NBXRudfC7-Dsp7xLc74Gmrcp44ZtskF-JkgmXtRcrFIPmrFofrrrszWBKkLmDWvGjDfNvXJfQZXQzZgUsVNLbZ5mPjAt5RT_SDGhrjeOHFfuJuVe6PCS19NW-tTH-bQ6xiQKz8di5Riyc3Jjql21tz_7mXw1Pj7gPYDjZPfelliXNjcLZM41s0csADrrvPP3Ce5jKQ2ygemQl0fK8P6mnciiHrENJUAtibpmXdCKGV7tkHWq4Mf-zLRhr9js3NJDcwaoxNv4MFQ0T82UTGXJHAaWiTSSBCvJ9ApYhQiMi96f0rvSoj_tnK_XyCHoEVzST4XRY5LHkkxeIZC4qvuoGfdOnrw6SyDB7sHuSUJLIyB7Gx_Aet0lU40MmeMeAfYPP6VMaYLDsr8-T8epQtE22C2rY06e1fk10olYTlQxOtOguKMP-Xm7Yw4mT36HS-DTZ3_Gp1TygkHW4Hi1gR-I5b8duMcdNnQV3TvSRHb3ZY46BCxGYvpi8fOMw0u5VmRhTgl_w57Rj8K1EjBy0EhpWokkzKd21SLV2pMZq17W7qVuIAi64zCDKggVGP_yRNf-SAxGr1SRVx9NxlDJKzeKOZDZkc5qJXHiFJnAmIUk3Ps6rO4tyXOBxWmLHDMIPHEJ5PCq6d98BoSXAdC82mru29k8M4LyKhTJ9AhAth5RYv3c5vDmr-lRzw6CTmiGdeT__ukldmxXVYt2OAY9aaBoYOBUZtfl8LdEFfAfAb2rEpblzWgp8VUnJlrQEEBwlYmue8VGN3I2lCc3CbPbPIpapVOMMVP25vcMJWTbOjgrbxxmQbtu54O1fU1MND_1IytKew2itS4p-e-_my0]--></g></svg>