<svg xmlns="http://www.w3.org/2000/svg" xmlns:xlink="http://www.w3.org/1999/xlink" contentStyleType="text/css" height="811px" preserveAspectRatio="none" style="width:950px;height:811px;background:#FFFFFF;" version="1.1" viewBox="0 0 950 811" width="950px" zoomAndPan="magnify"><!-- GENERATED from cat-harness/uml/overview/cat-harness/skills.puml by cat-harness-tools/scripts/gen-uml-overview.ts (PlantUML 1.2024.7) --><!-- puml-sha256: d71507a867454b4aa651ba9d7ef368463a648e6253a33e1d95065cc43cd6303d --><defs/><g><rect fill="#FFFFFF" height="788.8418" rx="2.5" ry="2.5" style="stroke:#000000;stroke-width:1.0;" width="927.1188" x="17" y="17"/><text fill="#000000" font-family="Verdana" font-size="14" font-style="italic" lengthAdjust="spacing" textLength="48.9521" x="456.0833" y="32.5625">&#171;skills&#187;</text><text fill="#000000" font-family="Verdana" font-size="14" font-weight="bold" lengthAdjust="spacing" textLength="123.9424" x="418.5882" y="49.502">cat-harness/skills</text><!--class cat_harness_skills_folio_voice_v1_Source--><g id="elem_cat_harness_skills_folio_voice_v1_Source"><rect codeLine="11" fill="#E8F0EE" height="151.0957" id="cat_harness_skills_folio_voice_v1_Source" rx="2.5" ry="2.5" style="stroke:#000000;stroke-width:1.0;" width="183.5332" x="726.6416" y="403.1914"/><ellipse cx="739.6416" cy="423.9209" fill="#FFFFFF" rx="9" ry="9" style="stroke:#000000;stroke-width:1.0;"/><path d="M742.6104,429.5615 Q742.0322,429.8584 741.3916,429.999 Q740.751,430.1553 740.0479,430.1553 Q737.5479,430.1553 736.2197,428.5146 Q734.9072,426.8584 734.9072,423.7334 Q734.9072,420.6084 736.2197,418.9521 Q737.5479,417.2959 740.0479,417.2959 Q740.751,417.2959 741.3916,417.4521 Q742.0479,417.6084 742.6104,417.9053 L742.6104,420.624 Q741.9854,420.0459 741.3916,419.7803 Q740.7979,419.499 740.1729,419.499 Q738.8291,419.499 738.1416,420.5771 Q737.4541,421.6396 737.4541,423.7334 Q737.4541,425.8271 738.1416,426.9053 Q738.8291,427.9678 740.1729,427.9678 Q740.7979,427.9678 741.3916,427.7021 Q741.9854,427.4209 742.6104,426.8428 L742.6104,429.5615 Z " fill="#000000"/><text fill="#000000" font-family="Verdana" font-size="12" font-style="italic" lengthAdjust="spacing" textLength="159.5332" x="749.6416" y="419.8164">&#171;json: VoiceProfileSchema&#187;</text><text fill="#000000" font-family="Verdana" font-size="14" lengthAdjust="spacing" textLength="47.0859" x="805.8652" y="436.2734">Source</text><line style="stroke:#000000;stroke-width:1.0;" x1="727.6416" x2="909.1748" y1="444.6504" y2="444.6504"/><text fill="#000000" font-family="Verdana" font-size="14" lengthAdjust="spacing" textLength="93.3447" x="732.6416" y="462.2129">title [1] : string</text><text fill="#000000" font-family="Verdana" font-size="14" lengthAdjust="spacing" textLength="142.0645" x="732.6416" y="479.1523">instance [0..1] : string</text><text fill="#000000" font-family="Verdana" font-size="14" lengthAdjust="spacing" textLength="140.0957" x="732.6416" y="496.0918">libraryId [0..1] : string</text><text fill="#000000" font-family="Verdana" font-size="14" lengthAdjust="spacing" textLength="115.4316" x="732.6416" y="513.0313">path [0..1] : string</text><text fill="#000000" font-family="Verdana" font-size="14" lengthAdjust="spacing" textLength="138.5439" x="732.6416" y="529.9707">url [0..1] : string&lt;uri&gt;</text><text fill="#000000" font-family="Verdana" font-size="14" lengthAdjust="spacing" textLength="124.2363" x="732.6416" y="546.9102">year [0..1] : integer</text></g><!--class cat_harness_skills_folio_voice_v1_Pattern--><g id="elem_cat_harness_skills_folio_voice_v1_Pattern"><rect codeLine="19" fill="#E8F0EE" height="100.2773" id="cat_harness_skills_folio_voice_v1_Pattern" rx="2.5" ry="2.5" style="stroke:#000000;stroke-width:1.0;" width="205.3066" x="443.8841" y="690.5645"/><ellipse cx="466.6822" cy="711.2939" fill="#FFFFFF" rx="9" ry="9" style="stroke:#000000;stroke-width:1.0;"/><path d="M469.6509,716.9346 Q469.0728,717.2314 468.4322,717.3721 Q467.7915,717.5283 467.0884,717.5283 Q464.5884,717.5283 463.2603,715.8877 Q461.9478,714.2314 461.9478,711.1064 Q461.9478,707.9814 463.2603,706.3252 Q464.5884,704.6689 467.0884,704.6689 Q467.7915,704.6689 468.4322,704.8252 Q469.0884,704.9814 469.6509,705.2783 L469.6509,707.9971 Q469.0259,707.4189 468.4322,707.1533 Q467.8384,706.8721 467.2134,706.8721 Q465.8697,706.8721 465.1822,707.9502 Q464.4947,709.0127 464.4947,711.1064 Q464.4947,713.2002 465.1822,714.2783 Q465.8697,715.3408 467.2134,715.3408 Q467.8384,715.3408 468.4322,715.0752 Q469.0259,714.7939 469.6509,714.2158 L469.6509,716.9346 Z " fill="#000000"/><text fill="#000000" font-family="Verdana" font-size="12" font-style="italic" lengthAdjust="spacing" textLength="159.5332" x="478.8595" y="707.1895">&#171;json: VoiceProfileSchema&#187;</text><text fill="#000000" font-family="Verdana" font-size="14" lengthAdjust="spacing" textLength="47.667" x="534.7926" y="723.6465">Pattern</text><line style="stroke:#000000;stroke-width:1.0;" x1="444.8841" x2="648.1908" y1="732.0234" y2="732.0234"/><text fill="#000000" font-family="Verdana" font-size="14" lengthAdjust="spacing" textLength="107.0645" x="449.8841" y="749.5859">regex [1] : string</text><text fill="#000000" font-family="Verdana" font-size="14" lengthAdjust="spacing" textLength="193.3066" x="449.8841" y="766.5254">caseSensitive [0..1] : boolean</text><text fill="#000000" font-family="Verdana" font-size="14" lengthAdjust="spacing" textLength="129.0557" x="449.8841" y="783.4648">message [1] : string</text></g><!--class cat_harness_skills_folio_voice_v1_Terminology--><g id="elem_cat_harness_skills_folio_voice_v1_Terminology"><rect codeLine="24" fill="#E8F0EE" height="100.2773" id="cat_harness_skills_folio_voice_v1_Terminology" rx="2.5" ry="2.5" style="stroke:#000000;stroke-width:1.0;" width="200.8086" x="669.1908" y="690.5645"/><ellipse cx="689.9647" cy="711.2939" fill="#FFFFFF" rx="9" ry="9" style="stroke:#000000;stroke-width:1.0;"/><path d="M692.9334,716.9346 Q692.3553,717.2314 691.7147,717.3721 Q691.0741,717.5283 690.3709,717.5283 Q687.8709,717.5283 686.5428,715.8877 Q685.2303,714.2314 685.2303,711.1064 Q685.2303,707.9814 686.5428,706.3252 Q687.8709,704.6689 690.3709,704.6689 Q691.0741,704.6689 691.7147,704.8252 Q692.3709,704.9814 692.9334,705.2783 L692.9334,707.9971 Q692.3084,707.4189 691.7147,707.1533 Q691.1209,706.8721 690.4959,706.8721 Q689.1522,706.8721 688.4647,707.9502 Q687.7772,709.0127 687.7772,711.1064 Q687.7772,713.2002 688.4647,714.2783 Q689.1522,715.3408 690.4959,715.3408 Q691.1209,715.3408 691.7147,715.0752 Q692.3084,714.7939 692.9334,714.2158 L692.9334,716.9346 Z " fill="#000000"/><text fill="#000000" font-family="Verdana" font-size="12" font-style="italic" lengthAdjust="spacing" textLength="159.5332" x="701.6922" y="707.1895">&#171;json: VoiceProfileSchema&#187;</text><text fill="#000000" font-family="Verdana" font-size="14" lengthAdjust="spacing" textLength="83.0293" x="739.9442" y="723.6465">Terminology</text><line style="stroke:#000000;stroke-width:1.0;" x1="670.1908" x2="868.9993" y1="732.0234" y2="732.0234"/><text fill="#000000" font-family="Verdana" font-size="14" lengthAdjust="spacing" textLength="116.915" x="675.1908" y="749.5859">correct [1] : string</text><text fill="#000000" font-family="Verdana" font-size="14" lengthAdjust="spacing" textLength="188.8086" x="675.1908" y="766.5254">incorrect [1] : string | string[]</text><text fill="#000000" font-family="Verdana" font-size="14" lengthAdjust="spacing" textLength="135.7686" x="675.1908" y="783.4648">context [0..1] : string</text></g><!--class cat_harness_skills_folio_voice_v1_Rule--><g id="elem_cat_harness_skills_folio_voice_v1_Rule"><rect codeLine="29" fill="#E8F0EE" height="209.9141" id="cat_harness_skills_folio_voice_v1_Rule" rx="2.5" ry="2.5" style="stroke:#000000;stroke-width:1.0;" width="240.1563" x="466.4854" y="403.1914"/><ellipse cx="505.0469" cy="423.9209" fill="#FFFFFF" rx="9" ry="9" style="stroke:#000000;stroke-width:1.0;"/><path d="M508.0156,429.5615 Q507.4375,429.8584 506.7969,429.999 Q506.1563,430.1553 505.4531,430.1553 Q502.9531,430.1553 501.625,428.5146 Q500.3125,426.8584 500.3125,423.7334 Q500.3125,420.6084 501.625,418.9521 Q502.9531,417.2959 505.4531,417.2959 Q506.1563,417.2959 506.7969,417.4521 Q507.4531,417.6084 508.0156,417.9053 L508.0156,420.624 Q507.3906,420.0459 506.7969,419.7803 Q506.2031,419.499 505.5781,419.499 Q504.2344,419.499 503.5469,420.5771 Q502.8594,421.6396 502.8594,423.7334 Q502.8594,425.8271 503.5469,426.9053 Q504.2344,427.9678 505.5781,427.9678 Q506.2031,427.9678 506.7969,427.7021 Q507.3906,427.4209 508.0156,426.8428 L508.0156,429.5615 Z " fill="#000000"/><text fill="#000000" font-family="Verdana" font-size="12" font-style="italic" lengthAdjust="spacing" textLength="159.5332" x="520.5469" y="419.8164">&#171;json: VoiceProfileSchema&#187;</text><text fill="#000000" font-family="Verdana" font-size="14" lengthAdjust="spacing" textLength="28.8408" x="585.8931" y="436.2734">Rule</text><line style="stroke:#000000;stroke-width:1.0;" x1="467.4854" x2="705.6416" y1="444.6504" y2="444.6504"/><text fill="#000000" font-family="Verdana" font-size="14" lengthAdjust="spacing" textLength="81.2041" x="472.4854" y="462.2129">id [1] : string</text><text fill="#000000" font-family="Verdana" font-size="14" lengthAdjust="spacing" textLength="93.3447" x="472.4854" y="479.1523">title [1] : string</text><text fill="#000000" font-family="Verdana" font-size="14" lengthAdjust="spacing" textLength="143.2334" x="472.4854" y="496.0918">description [1] : string</text><text fill="#000000" font-family="Verdana" font-size="14" lengthAdjust="spacing" textLength="228.1563" x="472.4854" y="513.0313">severity [1] : critical | major | minor</text><text fill="#000000" font-family="Verdana" font-size="14" lengthAdjust="spacing" textLength="118.3438" x="472.4854" y="529.9707">source [1] : object</text><text fill="#000000" font-family="Verdana" font-size="14" lengthAdjust="spacing" textLength="162.5381" x="472.4854" y="546.9102">patterns [0..*] : Pattern[]</text><text fill="#000000" font-family="Verdana" font-size="14" lengthAdjust="spacing" textLength="221.7852" x="472.4854" y="563.8496">terminology [0..*] : Terminology[]</text><text fill="#000000" font-family="Verdana" font-size="14" lengthAdjust="spacing" textLength="202.2002" x="472.4854" y="580.7891">judgementOnly [0..1] : boolean</text><line style="stroke:#000000;stroke-width:1.0;" x1="467.4854" x2="705.6416" y1="588.166" y2="588.166"/><text fill="#000000" font-family="Verdana" font-size="14" lengthAdjust="spacing" textLength="152.0039" x="472.4854" y="605.7285">category [1] : enum(13)</text></g><!--class cat_harness_skills_folio_voice_v1_folio_voice_v1--><g id="elem_cat_harness_skills_folio_voice_v1_folio_voice_v1"><rect codeLine="40" fill="#E8F0EE" height="260.7324" id="cat_harness_skills_folio_voice_v1_folio_voice_v1" rx="2.5" ry="2.5" style="stroke:#000000;stroke-width:1.0;" width="513.833" x="415.2858" y="65"/><ellipse cx="590.6857" cy="85.7295" fill="#FFFFFF" rx="9" ry="9" style="stroke:#000000;stroke-width:1.0;"/><path d="M593.6545,91.3701 Q593.0763,91.667 592.4357,91.8076 Q591.7951,91.9639 591.092,91.9639 Q588.592,91.9639 587.2638,90.3232 Q585.9513,88.667 585.9513,85.542 Q585.9513,82.417 587.2638,80.7607 Q588.592,79.1045 591.092,79.1045 Q591.7951,79.1045 592.4357,79.2607 Q593.092,79.417 593.6545,79.7139 L593.6545,82.4326 Q593.0295,81.8545 592.4357,81.5889 Q591.842,81.3076 591.217,81.3076 Q589.8732,81.3076 589.1857,82.3857 Q588.4982,83.4482 588.4982,85.542 Q588.4982,87.6357 589.1857,88.7139 Q589.8732,89.7764 591.217,89.7764 Q591.842,89.7764 592.4357,89.5107 Q593.0295,89.2295 593.6545,88.6514 L593.6545,91.3701 Z " fill="#000000"/><text fill="#000000" font-family="Verdana" font-size="12" font-style="italic" lengthAdjust="spacing" textLength="159.5332" x="606.1857" y="81.625">&#171;json: VoiceProfileSchema&#187;</text><text fill="#000000" font-family="Verdana" font-size="14" lengthAdjust="spacing" textLength="89.6123" x="641.1462" y="98.082">folio-voice/v1</text><line style="stroke:#000000;stroke-width:1.0;" x1="416.2858" x2="928.1188" y1="106.459" y2="106.459"/><text fill="#000000" font-family="Verdana" font-size="14" lengthAdjust="spacing" textLength="332.917" x="421.2858" y="124.0215">$schema [1] : 'folio-voice/v1' | 'folio-voice-skill/v1'</text><text fill="#000000" font-family="Verdana" font-size="14" lengthAdjust="spacing" textLength="81.2041" x="421.2858" y="140.9609">id [1] : string</text><text fill="#000000" font-family="Verdana" font-size="14" lengthAdjust="spacing" textLength="93.3447" x="421.2858" y="157.9004">title [1] : string</text><text fill="#000000" font-family="Verdana" font-size="14" lengthAdjust="spacing" textLength="143.2334" x="421.2858" y="174.8398">description [1] : string</text><text fill="#000000" font-family="Verdana" font-size="14" lengthAdjust="spacing" textLength="157.0146" x="421.2858" y="191.7793">sources [1..*] : Source[]</text><text fill="#000000" font-family="Verdana" font-size="14" lengthAdjust="spacing" textLength="118.3779" x="421.2858" y="208.7188">rules [1..*] : Rule[]</text><text fill="#000000" font-family="Verdana" font-size="14" lengthAdjust="spacing" textLength="295.4629" x="421.2858" y="225.6582">overlaySeverity [0..1] : critical | major | minor</text><text fill="#000000" font-family="Verdana" font-size="14" lengthAdjust="spacing" textLength="297.4453" x="421.2858" y="242.5977">provenance [1] : assertion | evidence | house</text><text fill="#000000" font-family="Verdana" font-size="14" lengthAdjust="spacing" textLength="142.5293" x="421.2858" y="259.5371">extends [0..1] : object</text><text fill="#000000" font-family="Verdana" font-size="14" lengthAdjust="spacing" textLength="141.6406" x="421.2858" y="276.4766">activeIn [0..1] : object</text><text fill="#000000" font-family="Verdana" font-size="14" lengthAdjust="spacing" textLength="168.2803" x="421.2858" y="293.416">superseded [0..1] : object</text><line style="stroke:#000000;stroke-width:1.0;" x1="416.2858" x2="928.1188" y1="300.793" y2="300.793"/><text fill="#000000" font-family="Verdana" font-size="14" lengthAdjust="spacing" textLength="501.833" x="421.2858" y="318.3555">appliesTo [0..*] : list&lt;enum(16) | docs | skill | readme | specification | code&gt;</text></g><!--class cat_harness_skills_skill_topics_v1_Topic--><g id="elem_cat_harness_skills_skill_topics_v1_Topic"><rect codeLine="54" fill="#E8F0EE" height="117.2168" id="cat_harness_skills_skill_topics_v1_Topic" rx="2.5" ry="2.5" style="stroke:#000000;stroke-width:1.0;" width="176.1973" x="270.2881" y="403.1914"/><ellipse cx="283.2881" cy="423.9209" fill="#FFFFFF" rx="9" ry="9" style="stroke:#000000;stroke-width:1.0;"/><path d="M286.2568,429.5615 Q285.6787,429.8584 285.0381,429.999 Q284.3975,430.1553 283.6943,430.1553 Q281.1943,430.1553 279.8662,428.5146 Q278.5537,426.8584 278.5537,423.7334 Q278.5537,420.6084 279.8662,418.9521 Q281.1943,417.2959 283.6943,417.2959 Q284.3975,417.2959 285.0381,417.4521 Q285.6943,417.6084 286.2568,417.9053 L286.2568,420.624 Q285.6318,420.0459 285.0381,419.7803 Q284.4443,419.499 283.8193,419.499 Q282.4756,419.499 281.7881,420.5771 Q281.1006,421.6396 281.1006,423.7334 Q281.1006,425.8271 281.7881,426.9053 Q282.4756,427.9678 283.8193,427.9678 Q284.4443,427.9678 285.0381,427.7021 Q285.6318,427.4209 286.2568,426.8428 L286.2568,429.5615 Z " fill="#000000"/><text fill="#000000" font-family="Verdana" font-size="12" font-style="italic" lengthAdjust="spacing" textLength="152.1973" x="293.2881" y="419.8164">&#171;json: SkillTopicsSchema&#187;</text><text fill="#000000" font-family="Verdana" font-size="14" lengthAdjust="spacing" textLength="37.3926" x="350.6904" y="436.2734">Topic</text><line style="stroke:#000000;stroke-width:1.0;" x1="271.2881" x2="445.4854" y1="444.6504" y2="444.6504"/><text fill="#000000" font-family="Verdana" font-size="14" lengthAdjust="spacing" textLength="81.2041" x="276.2881" y="462.2129">id [1] : string</text><text fill="#000000" font-family="Verdana" font-size="14" lengthAdjust="spacing" textLength="98.5332" x="276.2881" y="479.1523">path [1] : string</text><text fill="#000000" font-family="Verdana" font-size="14" lengthAdjust="spacing" textLength="93.3447" x="276.2881" y="496.0918">title [1] : string</text><text fill="#000000" font-family="Verdana" font-size="14" lengthAdjust="spacing" textLength="143.2334" x="276.2881" y="513.0313">description [1] : string</text></g><!--class cat_harness_skills_skill_topics_v1_Directory--><g id="elem_cat_harness_skills_skill_topics_v1_Directory"><rect codeLine="60" fill="#E8F0EE" height="117.2168" id="cat_harness_skills_skill_topics_v1_Directory" rx="2.5" ry="2.5" style="stroke:#000000;stroke-width:1.0;" width="218.2881" x="32" y="403.1914"/><ellipse cx="63.9409" cy="423.9209" fill="#FFFFFF" rx="9" ry="9" style="stroke:#000000;stroke-width:1.0;"/><path d="M66.9096,429.5615 Q66.3315,429.8584 65.6909,429.999 Q65.0502,430.1553 64.3471,430.1553 Q61.8471,430.1553 60.519,428.5146 Q59.2065,426.8584 59.2065,423.7334 Q59.2065,420.6084 60.519,418.9521 Q61.8471,417.2959 64.3471,417.2959 Q65.0502,417.2959 65.6909,417.4521 Q66.3471,417.6084 66.9096,417.9053 L66.9096,420.624 Q66.2846,420.0459 65.6909,419.7803 Q65.0971,419.499 64.4721,419.499 Q63.1284,419.499 62.4409,420.5771 Q61.7534,421.6396 61.7534,423.7334 Q61.7534,425.8271 62.4409,426.9053 Q63.1284,427.9678 64.4721,427.9678 Q65.0971,427.9678 65.6909,427.7021 Q66.2846,427.4209 66.9096,426.8428 L66.9096,429.5615 Z " fill="#000000"/><text fill="#000000" font-family="Verdana" font-size="12" font-style="italic" lengthAdjust="spacing" textLength="152.1973" x="78.15" y="419.8164">&#171;json: SkillTopicsSchema&#187;</text><text fill="#000000" font-family="Verdana" font-size="14" lengthAdjust="spacing" textLength="61.0381" x="123.7295" y="436.2734">Directory</text><line style="stroke:#000000;stroke-width:1.0;" x1="33" x2="249.2881" y1="444.6504" y2="444.6504"/><text fill="#000000" font-family="Verdana" font-size="14" lengthAdjust="spacing" textLength="81.2041" x="38" y="462.2129">id [1] : string</text><text fill="#000000" font-family="Verdana" font-size="14" lengthAdjust="spacing" textLength="98.5332" x="38" y="479.1523">path [1] : string</text><text fill="#000000" font-family="Verdana" font-size="14" lengthAdjust="spacing" textLength="120.8525" x="38" y="496.0918">subgraph [1] : true</text><text fill="#000000" font-family="Verdana" font-size="14" lengthAdjust="spacing" textLength="206.2881" x="38" y="513.0313">graphTypologies [1..*] : string[]</text></g><!--class cat_harness_skills_skill_topics_v1_skill_topics_v1--><g id="elem_cat_harness_skills_skill_topics_v1_skill_topics_v1"><rect codeLine="66" fill="#E8F0EE" height="117.2168" id="cat_harness_skills_skill_topics_v1_skill_topics_v1" rx="2.5" ry="2.5" style="stroke:#000000;stroke-width:1.0;" width="203.8027" x="73.2098" y="208.5156"/><ellipse cx="98.6323" cy="229.2451" fill="#FFFFFF" rx="9" ry="9" style="stroke:#000000;stroke-width:1.0;"/><path d="M101.601,234.8857 Q101.0229,235.1826 100.3823,235.3232 Q99.7416,235.4795 99.0385,235.4795 Q96.5385,235.4795 95.2104,233.8389 Q93.8979,232.1826 93.8979,229.0576 Q93.8979,225.9326 95.2104,224.2764 Q96.5385,222.6201 99.0385,222.6201 Q99.7416,222.6201 100.3823,222.7764 Q101.0385,222.9326 101.601,223.2295 L101.601,225.9482 Q100.976,225.3701 100.3823,225.1045 Q99.7885,224.8232 99.1635,224.8232 Q97.8198,224.8232 97.1323,225.9014 Q96.4448,226.9639 96.4448,229.0576 Q96.4448,231.1514 97.1323,232.2295 Q97.8198,233.292 99.1635,233.292 Q99.7885,233.292 100.3823,233.0264 Q100.976,232.7451 101.601,232.167 L101.601,234.8857 Z " fill="#000000"/><text fill="#000000" font-family="Verdana" font-size="12" font-style="italic" lengthAdjust="spacing" textLength="152.1973" x="111.3928" y="225.1406">&#171;json: SkillTopicsSchema&#187;</text><text fill="#000000" font-family="Verdana" font-size="14" lengthAdjust="spacing" textLength="90.6172" x="142.1828" y="241.5977">skill-topics/v1</text><line style="stroke:#000000;stroke-width:1.0;" x1="74.2098" x2="276.0125" y1="249.9746" y2="249.9746"/><text fill="#000000" font-family="Verdana" font-size="14" lengthAdjust="spacing" textLength="191.7002" x="79.2098" y="267.5371">$schema [1] : 'skill-topics/v1'</text><text fill="#000000" font-family="Verdana" font-size="14" lengthAdjust="spacing" textLength="154.458" x="79.2098" y="284.4766">_comment [0..1] : string</text><text fill="#000000" font-family="Verdana" font-size="14" lengthAdjust="spacing" textLength="137.9014" x="79.2098" y="301.416">topics [0..*] : Topic[]</text><text fill="#000000" font-family="Verdana" font-size="14" lengthAdjust="spacing" textLength="191.8027" x="79.2098" y="318.3555">directories [0..*] : Directory[]</text></g><line style="stroke:#000000;stroke-width:1.0;" x1="757.8411" x2="757.8411" y1="325.7324" y2="335.7324"/><line style="stroke:#000000;stroke-width:1.0;" x1="757.8411" x2="818.4082" y1="335.7324" y2="335.7324"/><line style="stroke:#000000;stroke-width:1.0;" x1="818.4082" x2="818.4082" y1="335.7324" y2="403.1914"/><polygon fill="#000000" points="757.8411,325.7324,753.8411,331.7324,757.8411,337.7324,761.8411,331.7324,757.8411,325.7324" style="stroke:#000000;stroke-width:1.0;"/><text fill="#000000" font-family="Verdana" font-size="13" lengthAdjust="spacing" textLength="49.1055" x="765.3027" y="360.3262">sources</text><text fill="#000000" font-family="Verdana" font-size="13" lengthAdjust="spacing" textLength="19.2905" x="821.4082" y="398.0557">1..*</text><line style="stroke:#000000;stroke-width:1.0;" x1="546.5374" x2="546.5374" y1="613.1055" y2="690.5645"/><polygon fill="#000000" points="546.5374,613.1055,542.5374,619.1055,546.5374,625.1055,550.5374,619.1055,546.5374,613.1055" style="stroke:#000000;stroke-width:1.0;"/><text fill="#000000" font-family="Verdana" font-size="13" lengthAdjust="spacing" textLength="50.7813" x="491.7562" y="647.6992">patterns</text><text fill="#000000" font-family="Verdana" font-size="13" lengthAdjust="spacing" textLength="22.2041" x="549.5374" y="685.4287">0..*</text><line style="stroke:#000000;stroke-width:1.0;" x1="626.5895" x2="626.5895" y1="613.1055" y2="623.1055"/><line style="stroke:#000000;stroke-width:1.0;" x1="626.5895" x2="769.5951" y1="623.1055" y2="623.1055"/><line style="stroke:#000000;stroke-width:1.0;" x1="769.5951" x2="769.5951" y1="623.1055" y2="690.5645"/><polygon fill="#000000" points="626.5895,613.1055,622.5895,619.1055,626.5895,625.1055,630.5895,619.1055,626.5895,613.1055" style="stroke:#000000;stroke-width:1.0;"/><text fill="#000000" font-family="Verdana" font-size="13" lengthAdjust="spacing" textLength="72.96" x="774.5951" y="647.6992">terminology</text><text fill="#000000" font-family="Verdana" font-size="13" lengthAdjust="spacing" textLength="22.2041" x="772.5951" y="685.4287">0..*</text><line style="stroke:#000000;stroke-width:1.0;" x1="586.5635" x2="586.5635" y1="325.7324" y2="403.1914"/><polygon fill="#000000" points="586.5635,325.7324,582.5635,331.7324,586.5635,337.7324,590.5635,331.7324,586.5635,325.7324" style="stroke:#000000;stroke-width:1.0;"/><text fill="#000000" font-family="Verdana" font-size="13" lengthAdjust="spacing" textLength="30.1704" x="552.3931" y="360.3262">rules</text><text fill="#000000" font-family="Verdana" font-size="13" lengthAdjust="spacing" textLength="19.2905" x="589.5635" y="398.0557">1..*</text><line style="stroke:#000000;stroke-width:1.0;" x1="209.0783" x2="209.0783" y1="325.7324" y2="335.7324"/><line style="stroke:#000000;stroke-width:1.0;" x1="209.0783" x2="358.3867" y1="335.7324" y2="335.7324"/><line style="stroke:#000000;stroke-width:1.0;" x1="358.3867" x2="358.3867" y1="335.7324" y2="403.1914"/><polygon fill="#000000" points="209.0783,325.7324,205.0783,331.7324,209.0783,337.7324,213.0783,331.7324,209.0783,325.7324" style="stroke:#000000;stroke-width:1.0;"/><text fill="#000000" font-family="Verdana" font-size="13" lengthAdjust="spacing" textLength="37.4448" x="316.9419" y="360.3262">topics</text><text fill="#000000" font-family="Verdana" font-size="13" lengthAdjust="spacing" textLength="22.2041" x="361.3867" y="398.0557">0..*</text><line style="stroke:#000000;stroke-width:1.0;" x1="141.144" x2="141.144" y1="325.7324" y2="403.1914"/><polygon fill="#000000" points="141.144,325.7324,137.144,331.7324,141.144,337.7324,145.144,331.7324,141.144,325.7324" style="stroke:#000000;stroke-width:1.0;"/><text fill="#000000" font-family="Verdana" font-size="13" lengthAdjust="spacing" textLength="65.5396" x="71.6045" y="360.3262">directories</text><text fill="#000000" font-family="Verdana" font-size="13" lengthAdjust="spacing" textLength="22.2041" x="144.144" y="398.0557">0..*</text><!--SRC=[jLRVQzim47xtNw5cWww5j0c3CK8e3FRIfvMbxAKKeyWNHuai6KdEwgtzttVwaKHDtP9iovDjVIVfxhllxdnIQrfMb0ZQgiOI4ClinCwX0b8BocLcbbpMLDEAC46D-MAjvjF6mZLJSi9_0Haa9cPE2_MJovBCg32G83LbIrh2nBO2Y0PcgIm5P7DU086gjYsfmCvLOR8icf8UexO_frg2CPTuaX2cHwWXzRBC4SeZb0U8ZCVXvUgA_Cv8y9Rq9ghH3Fo-btlocH9SvIl56UIhOHwCyQI5KN94VhZr6wrcNC248ISKptu7dsS307y78PPRZETkU4z6n20pilJBN1eC48-w6rnSx8A2JpNLxNNHYTRKpZk1HelTzN6Z-PK7Mw1wYt9feGIDoDEMYHjgBMYv9nNH-X0kDDxvy98BHWrCG1fk-IeXPAgK02gzIOL-k8plx4sSlmLTSQc4Ajiz0qXs7184KzgfiokbNH1vZ2ztzt4xKlzWEnAO1FEz4VigqfaUuZulNdh-YaOBC4ppsd8bkvA62bAwZGZ8flem_7ZcCGChqDokCJp4SaO5Kb7HXTBkYSJhO1igAbYgwGBvMwlSoSjueiuT60KNURH9zZOcIKgZsQ8fIcnLqdwJektILiAwPxRlcRrS3VVa__dd8PbuR_nw3Ftq-UsdI5AwrFUtE-2_PZ6mZoGF8uEXmKNoD6ehmPpK8g8mmJWF9fj4hubzCzUqhWK7Swks6HFSs74GpwSpD2uKCwvaNBJur40B73IuK0FZCppPn_68PLH0Q6orHcTawANU1Smbw6W6AnmV3deaSzNWl74xiFn05cRhT28xobmJkfQTe6bgq0OAA3hWj1UfchFNzECVkNKcnhSXzxRHpSIXViaSKC1X9Fox898OldBNoh30zurZi-4eiPXcMcfQhn6hcv1BltZRrgxcUIhMfEacKNcd-y7fDsfyDxQTxmCYt2dodVj3CUTCLQv5TGxrO9kqEFSTgx28bFl0rmQRFCJOdxBiu2vstk-JdcEoj_y_qMZTJB8zXvQ_PB3d9Uk_ZT5cC1pbclIVO9JEc2Dpw3qTXOQR_OKWtmwok-MCehQEVz-sDOnIpVu1]--></g></svg>